<svg width="18" height="20" viewBox="0 0 18 20" fill="none" xmlns="http://www.w3.org/2000/svg">
<path d="M17.2925 19.6274L15.2505 17.8274L14.0995 16.7574L12.8825 15.6274L13.3825 17.3864H2.61449C1.53611 17.3826 0.664727 16.5058 0.667487 15.4274V2.58444C0.665832 1.50683 1.53689 0.631301 2.61449 0.627441H15.3455C16.4231 0.631301 17.2942 1.50683 17.2925 2.58444V19.6274ZM12.7675 11.1354C12.3458 11.701 11.7388 12.1002 11.0525 12.2634C11.3345 12.6234 11.6745 13.0304 11.6775 13.0344C12.8246 13.0587 13.9108 12.5192 14.5845 11.5904C14.55 9.66516 14.0824 7.77235 13.2165 6.05244C12.4541 5.45421 11.5261 5.10507 10.5585 5.05244H10.5475L10.4145 5.20444C11.2788 5.43659 12.0848 5.84744 12.7805 6.41044C11.8953 5.92385 10.9239 5.61409 9.92049 5.49844C9.28272 5.42761 8.63874 5.43399 8.00249 5.51744C7.95751 5.51833 7.91269 5.52302 7.86849 5.53144H7.84049C7.09484 5.6173 6.3673 5.81976 5.68449 6.13144C5.34249 6.28844 5.13249 6.40244 5.12349 6.40644C5.11449 6.41044 5.12349 6.40644 5.12349 6.39944C5.86138 5.81908 6.71266 5.39974 7.62249 5.16844L7.52249 5.05444H7.51649C6.54889 5.1072 5.62093 5.45632 4.85849 6.05444C3.9894 7.77318 3.52166 9.66672 3.49049 11.5924C4.15583 12.5273 5.24349 13.0689 6.39049 13.0364C6.39049 13.0364 6.74849 12.6004 7.02749 12.2474C6.35849 12.0793 5.76901 11.6833 5.36049 11.1274C5.36749 11.1324 5.46649 11.1994 5.62649 11.2874C5.63724 11.3001 5.65053 11.3103 5.66549 11.3174C5.67816 11.3262 5.69154 11.3339 5.70549 11.3404C5.72131 11.3476 5.73638 11.3563 5.75049 11.3664C5.9736 11.4894 6.20519 11.5964 6.44349 11.6864C6.89657 11.8658 7.36522 12.0031 7.84349 12.0964C8.26224 12.1754 8.68737 12.2156 9.11349 12.2164C9.51303 12.2164 9.91171 12.1796 10.3045 12.1064C10.7775 12.0234 11.2395 11.8865 11.6815 11.6984C12.0632 11.5516 12.4275 11.3628 12.7675 11.1354ZM10.7295 10.7084C10.2944 10.7464 9.88068 10.5134 9.68761 10.1216C9.49453 9.7299 9.56173 9.25983 9.85682 8.93789C10.1519 8.61594 10.6144 8.50816 11.0214 8.66648C11.4284 8.82479 11.6965 9.21672 11.6965 9.65344C11.7185 10.2114 11.2862 10.6825 10.7285 10.7084H10.7295ZM7.26149 10.7084C6.71434 10.6608 6.29445 10.2027 6.29445 9.65344C6.29445 9.10421 6.71434 8.64613 7.26149 8.59844C7.51354 8.59921 7.75452 8.70202 7.92949 8.88344C8.12803 9.08952 8.23604 9.36636 8.22949 9.65244C8.25264 10.2113 7.81929 10.6836 7.26049 10.7084H7.26149Z" fill="white"/>
</svg>
