<svg width="20" height="21" viewBox="0 0 20 21" fill="none" xmlns="http://www.w3.org/2000/svg">
<path d="M0.00286865 10.6295C0.00403219 15.5489 3.58127 19.7375 8.43987 20.5085V13.5195H5.90287V10.6295H8.44287V8.42949C8.32932 7.38703 8.68539 6.34808 9.41451 5.59442C10.1436 4.84076 11.1702 4.4505 12.2159 4.52949C12.9664 4.54161 13.7151 4.60845 14.4559 4.72949V7.18849H13.1919C12.7567 7.13149 12.3192 7.27521 12.0026 7.57915C11.6861 7.8831 11.5246 8.31437 11.5639 8.75149V10.6295H14.3349L13.8919 13.5205H11.5639V20.5085C16.8183 19.6781 20.503 14.8793 19.9484 9.58856C19.3938 4.29785 14.7942 0.367415 9.48169 0.644664C4.16923 0.921913 0.00371313 5.30979 0.00286865 10.6295Z" fill="white"/>
</svg>
