<svg width="19" height="19" viewBox="0 0 19 19" fill="none" xmlns="http://www.w3.org/2000/svg">
<path d="M10.3342 18.6274H6.33417V6.62744H10.3342V8.62744C11.1868 7.5427 12.4798 6.89601 13.8592 6.86444C16.3398 6.87821 18.3414 8.89682 18.3342 11.3774V18.6274H14.3342V11.8774C14.1742 10.7601 13.2159 9.93102 12.0872 9.93344C11.5934 9.94905 11.1274 10.1652 10.7966 10.5321C10.4658 10.8989 10.2988 11.3847 10.3342 11.8774V18.6274ZM4.33417 18.6274H0.334167V6.62744H4.33417V18.6274ZM2.33417 4.62744C1.2296 4.62744 0.334167 3.73201 0.334167 2.62744C0.334167 1.52287 1.2296 0.627441 2.33417 0.627441C3.43874 0.627441 4.33417 1.52287 4.33417 2.62744C4.33417 3.15787 4.12345 3.66658 3.74838 4.04166C3.37331 4.41673 2.8646 4.62744 2.33417 4.62744Z" fill="white"/>
</svg>
