<svg width="49" height="49" viewBox="0 0 49 49" fill="none" xmlns="http://www.w3.org/2000/svg">
<rect x="0.500854" y="0.627075" width="48" height="48" rx="6" fill="#F2994A"/>
<g clip-path="url(#clip0_1_306)">
<path d="M33.5009 19.9071V17.6271C33.5009 16.5271 32.6009 15.6271 31.5009 15.6271H17.5009C16.3909 15.6271 15.5009 16.5271 15.5009 17.6271V31.6271C15.5009 32.7271 16.3909 33.6271 17.5009 33.6271H31.5009C32.6009 33.6271 33.5009 32.7271 33.5009 31.6271V29.3471C34.0909 28.9971 34.5009 28.3671 34.5009 27.6271V21.6271C34.5009 20.8871 34.0909 20.2571 33.5009 19.9071ZM32.5009 21.6271V27.6271H25.5009V21.6271H32.5009ZM17.5009 31.6271V17.6271H31.5009V19.6271H25.5009C24.4009 19.6271 23.5009 20.5271 23.5009 21.6271V27.6271C23.5009 28.7271 24.4009 29.6271 25.5009 29.6271H31.5009V31.6271H17.5009Z" fill="white"/>
<path d="M28.5009 26.1271C29.3293 26.1271 30.0009 25.4555 30.0009 24.6271C30.0009 23.7986 29.3293 23.1271 28.5009 23.1271C27.6724 23.1271 27.0009 23.7986 27.0009 24.6271C27.0009 25.4555 27.6724 26.1271 28.5009 26.1271Z" fill="white"/>
</g>
<defs>
<clipPath id="clip0_1_306">
<rect width="24" height="24" fill="white" transform="translate(12.5009 12.6271)"/>
</clipPath>
</defs>
</svg>
