<svg width="32" height="33" viewBox="0 0 32 33" fill="none" xmlns="http://www.w3.org/2000/svg">
<rect x="0.000854492" y="0.627441" width="32" height="32" rx="6" fill="#1DAFA7"/>
<g clip-path="url(#clip0_1_711)">
<path d="M16.0009 10.5274C17.1609 10.5274 18.1009 11.4674 18.1009 12.6274C18.1009 13.7874 17.1609 14.7274 16.0009 14.7274C14.8409 14.7274 13.9009 13.7874 13.9009 12.6274C13.9009 11.4674 14.8409 10.5274 16.0009 10.5274ZM16.0009 19.5274C18.9709 19.5274 22.1009 20.9874 22.1009 21.6274V22.7274H9.90085V21.6274C9.90085 20.9874 13.0309 19.5274 16.0009 19.5274ZM16.0009 8.62744C13.7909 8.62744 12.0009 10.4174 12.0009 12.6274C12.0009 14.8374 13.7909 16.6274 16.0009 16.6274C18.2109 16.6274 20.0009 14.8374 20.0009 12.6274C20.0009 10.4174 18.2109 8.62744 16.0009 8.62744ZM16.0009 17.6274C13.3309 17.6274 8.00085 18.9674 8.00085 21.6274V24.6274H24.0009V21.6274C24.0009 18.9674 18.6709 17.6274 16.0009 17.6274Z" fill="white"/>
</g>
<defs>
<clipPath id="clip0_1_711">
<rect width="24" height="24" fill="white" transform="translate(4.00085 4.62744)"/>
</clipPath>
</defs>
</svg>
