<svg width="22" height="18" viewBox="0 0 22 18" fill="none" xmlns="http://www.w3.org/2000/svg">
<path d="M18.9959 3.31543C19.8923 2.77952 20.563 1.93567 20.8829 0.94143C20.0405 1.44123 19.1189 1.79331 18.1579 1.98243C16.8255 0.572958 14.7144 0.229956 13.0043 1.14509C11.2942 2.06022 10.4084 4.00692 10.8419 5.89743C7.39148 5.7242 4.17684 4.09435 1.99787 1.41343C0.86071 3.37485 1.44182 5.88221 3.32587 7.14343C2.64458 7.12153 1.9784 6.93707 1.38287 6.60543C1.38287 6.62343 1.38287 6.64143 1.38287 6.65943C1.38326 8.70258 2.82324 10.4625 4.82587 10.8674C4.19393 11.0394 3.53108 11.0647 2.88787 10.9414C3.45107 12.6887 5.06142 13.8857 6.89687 13.9214C5.3767 15.1146 3.49935 15.7616 1.56687 15.7584C1.22434 15.7589 0.88208 15.7392 0.54187 15.6994C2.50426 16.9605 4.78824 17.6298 7.12087 17.6274C10.3661 17.6497 13.4849 16.3703 15.7796 14.0754C18.0743 11.7806 19.3534 8.66168 19.3309 5.41643C19.3309 5.23043 19.3265 5.04543 19.3179 4.86143C20.1583 4.25403 20.8837 3.50158 21.4599 2.63943C20.6769 2.98649 19.8463 3.21435 18.9959 3.31543Z" fill="white"/>
</svg>
